<?xml version="1.0" encoding="UTF-8" standalone="no"?>
<svg
   xmlns:dc="http://purl.org/dc/elements/1.1/"
   xmlns:cc="http://creativecommons.org/ns#"
   xmlns:rdf="http://www.w3.org/1999/02/22-rdf-syntax-ns#"
   xmlns:svg="http://www.w3.org/2000/svg"
   xmlns="http://www.w3.org/2000/svg"
   xmlns:sodipodi="http://sodipodi.sourceforge.net/DTD/sodipodi-0.dtd"
   xmlns:inkscape="http://www.inkscape.org/namespaces/inkscape"
   width="24px"
   height="21px"
   viewBox="0 0 24 21"
   version="1.1"
   id="svg4154"
   inkscape:version="0.48.2 r9819"
   sodipodi:docname="icon-burger.svg">
  <metadata
     id="metadata4169">
    <rdf:RDF>
      <cc:Work
         rdf:about="">
        <dc:format>image/svg+xml</dc:format>
        <dc:type
           rdf:resource="http://purl.org/dc/dcmitype/StillImage" />
      </cc:Work>
    </rdf:RDF>
  </metadata>
  <sodipodi:namedview
     pagecolor="#ffffff"
     bordercolor="#666666"
     borderopacity="1"
     objecttolerance="10"
     gridtolerance="10"
     guidetolerance="10"
     inkscape:pageopacity="0"
     inkscape:pageshadow="2"
     inkscape:window-width="1826"
     inkscape:window-height="1073"
     id="namedview4167"
     showgrid="false"
     inkscape:zoom="47.544513"
     inkscape:cx="5.2590452"
     inkscape:cy="14.561043"
     inkscape:window-x="0"
     inkscape:window-y="0"
     inkscape:window-maximized="0"
     inkscape:current-layer="svg4154" />
  <title
     id="title4156">icon-burger</title>
  <description
     id="description4158">Created with Sketch (http://www.bohemiancoding.com/sketch)</description>
  <defs
     id="defs4160" />
  <g
     id="Page 1"
     stroke-width="1"
     stroke="none"
     fill-rule="evenodd"
     fill="none">
    <g
       id="Regular"
       transform="translate(-32.000000, -18.000000)">
      <path
         d="M0,0 L0,1136 L640,1136 L640,0 L0,0 Z M0,0"
         id="Rectangle 2"
         fill="#E2EEF2" />
      <path
         d="M0,0 L0,58 L640,58 L640,0 L0,0 Z M0,0"
         id="Rectangle 4"
         fill="#B8D6E0" />
      <path
         d="M55,38.9999668 L33,38.9999668 C32,38.9999668 32,38.9999668 32,37.9999668 L32,34.9999668 C32,33.9999668 32,33.9999668 33,33.9999668 L55,33.9999668 C56,33.9999668 56,33.9999668 56,34.9999668 L56,37.9999668 C56,38.9999668 56,38.9999668 55,38.9999668 L55,38.9999668 Z M55,30.9999668 L33,30.9999668 C32,30.9999668 32,30.9999668 32,29.9999668 L32,26.9999668 C32,25.9999668 32,25.9999668 33,25.9999668 L55,25.9999668 C56,25.9999668 56,25.9999668 56,26.9999668 L56,29.9999668 C56,30.9999668 56,30.9999668 55,30.9999668 L55,30.9999668 Z M55,22.9999668 L33,22.9999668 C32,22.9999668 32,22.9999668 32,21.9999668 L32,18.9999668 C32,17.9999668 32,17.9999668 33,17.9999668 L55,17.9999668 C56,17.9999668 56,17.9999668 56,18.9999668 L56,21.9999668 C56,22.9999668 56,22.9999668 55,22.9999668 L55,22.9999668 Z M55,22.9999668"
         id="Shape"
         fill="#33495D"
         style="fill:#009bf0;fill-opacity:1" />
    </g>
  </g>
</svg>
